<svg width="112" height="36" viewBox="0 0 112 36" fill="none" xmlns="http://www.w3.org/2000/svg">
<path d="M29.7415 24.9162L24.4503 21.8332V14.1305L29.7287 11.0806C30.0533 10.8927 30.3228 10.6228 30.5102 10.2979C30.6975 9.973 30.7961 9.60455 30.7961 9.2295C30.7961 8.85445 30.6975 8.48599 30.5102 8.16109C30.3228 7.83619 30.0533 7.56627 29.7287 7.37841L17.7517 0.458462C17.2315 0.158118 16.6414 0 16.0407 0C15.44 0 14.8499 0.158118 14.3297 0.458462L1.711 7.74734C1.19156 8.04849 0.760198 8.48061 0.459964 9.00058C0.159731 9.52054 0.00113203 10.1102 0 10.7106L0 25.2894C0.00113203 25.8898 0.159731 26.4795 0.459964 26.9994C0.760198 27.5194 1.19156 27.9515 1.711 28.2527L14.3297 35.5415C14.8499 35.8419 15.44 36 16.0407 36C16.6414 36 17.2315 35.8419 17.7517 35.5415L29.7287 28.6205C30.0532 28.4332 30.3228 28.1639 30.5104 27.8396C30.6981 27.5153 30.7973 27.1473 30.798 26.7727C30.7988 26.398 30.7011 26.0297 30.5147 25.7046C30.3284 25.3795 30.0599 25.1091 29.7362 24.9205L29.7415 24.9162ZM9.34208 15.1154L14.8644 18.3053C15.222 18.5118 15.6277 18.6205 16.0407 18.6205C16.4536 18.6205 16.8593 18.5118 17.217 18.3053L22.7392 15.1154V21.4942C22.7393 21.6069 22.7097 21.7176 22.6534 21.8152C22.5971 21.9129 22.516 21.9939 22.4184 22.0503L16.3615 25.5578C16.2639 25.6141 16.1533 25.6438 16.0407 25.6438C15.928 25.6438 15.8174 25.6141 15.7199 25.5578L9.6629 22.0545C9.5653 21.9982 9.48426 21.9171 9.42794 21.8195C9.37162 21.7219 9.34201 21.6112 9.34208 21.4985V15.1154ZM10.1976 13.6353L15.7199 10.4465C15.8174 10.3901 15.928 10.3605 16.0407 10.3605C16.1533 10.3605 16.2639 10.3901 16.3615 10.4465L21.8816 13.6353L16.3615 16.8232C16.2639 16.8795 16.1533 16.9091 16.0407 16.9091C15.928 16.9091 15.8174 16.8795 15.7199 16.8232L10.1976 13.6353ZM28.8785 27.1384L16.8962 34.0594C16.6361 34.2096 16.341 34.2886 16.0407 34.2886C15.7403 34.2886 15.4453 34.2096 15.1852 34.0594L2.56651 26.7705C2.3065 26.6204 2.09057 26.4045 1.94041 26.1445C1.79024 25.8846 1.71112 25.5896 1.711 25.2894V10.7106C1.71094 10.4102 1.78996 10.115 1.94014 9.85487C2.09031 9.59469 2.30634 9.37863 2.56651 9.22843L15.1852 1.94062C15.4453 1.79045 15.7403 1.71139 16.0407 1.71139C16.341 1.71139 16.6361 1.79045 16.8962 1.94062L28.8732 8.85842C28.9383 8.89595 28.9923 8.94996 29.0299 9.01501C29.0675 9.08005 29.0872 9.15384 29.0872 9.22896C29.0872 9.30408 29.0675 9.37788 29.0299 9.44292C28.9923 9.50797 28.9383 9.56197 28.8732 9.5995L23.5659 12.6643L17.217 8.96536C16.8593 8.75887 16.4536 8.65017 16.0407 8.65017C15.6277 8.65017 15.222 8.75887 14.8644 8.96536L8.80739 12.4633C8.45101 12.6698 8.1549 12.966 7.94853 13.3225C7.74215 13.6789 7.63271 14.0832 7.63108 14.4951V21.4942C7.63178 21.907 7.74078 22.3124 7.9472 22.6699C8.15362 23.0273 8.45023 23.3244 8.80739 23.5314L14.8644 27.0346C15.222 27.2411 15.6277 27.3498 16.0407 27.3498C16.4536 27.3498 16.8593 27.2411 17.217 27.0346L23.5894 23.3121L28.8796 26.3941C28.9454 26.4315 29.0001 26.4857 29.0381 26.5511C29.0761 26.6165 29.096 26.6909 29.0959 26.7665C29.0958 26.8422 29.0756 26.9165 29.0375 26.9818C28.9993 27.0471 28.9444 27.1012 28.8785 27.1384Z" fill="url(#paint0_linear_66_968)"/>
<path d="M89.6049 1.06794C90.1017 1.06439 90.5883 1.20824 91.0034 1.48128C91.4184 1.75433 91.7432 2.14432 91.9365 2.60192C92.1299 3.05953 92.1833 3.56421 92.0899 4.05214C91.9964 4.54007 91.7604 4.98933 91.4116 5.34313C91.0629 5.69692 90.617 5.93935 90.1305 6.03976C89.644 6.14017 89.1386 6.09405 88.6782 5.90723C88.2179 5.72042 87.8233 5.40129 87.5443 4.99021C87.2654 4.57914 87.1146 4.09457 87.111 3.59779C87.1082 3.26781 87.1705 2.94051 87.2944 2.63466C87.4183 2.3288 87.6014 2.0504 87.833 1.81539C88.0647 1.58038 88.3404 1.39339 88.6445 1.26513C88.9485 1.13687 89.2749 1.06986 89.6049 1.06794Z" fill="black"/>
<path d="M87.8927 26.5464V8.64768H91.3531V26.5464H87.8927Z" fill="black"/>
<path d="M42.3275 17.5844C42.3275 21.6727 44.895 23.8739 47.7977 23.8739C51.1469 23.8739 52.3766 21.6041 52.7838 20.1895L55.873 21.5288C55.0177 24.0963 52.4502 27.1118 47.7977 27.1118C42.5892 27.1053 38.756 23.0104 38.756 17.5844C38.756 12.003 42.6628 8.09952 47.7617 8.09952C52.5238 8.09952 54.9801 11.0758 55.7242 13.7921L52.5614 15.1314C52.115 13.3816 50.8116 11.3358 47.7617 11.3358C44.9326 11.3277 42.3275 13.4111 42.3275 17.5844Z" fill="black"/>
<path d="M64.9212 27.1056C59.8877 27.1056 57.3677 23.9789 57.3677 19.9232V8.64765H60.8656V19.4016C60.8656 21.8546 61.9826 24.0165 64.9212 24.0165C67.7504 24.0165 69.1633 22.1555 69.1633 19.4375V8.64438H72.6613V19.9232C72.6678 23.9625 69.963 27.1056 64.9212 27.1056Z" fill="black"/>
<path d="M84.0758 12.077C84.5864 12.0787 85.0962 12.1159 85.6016 12.1882L85.5934 8.46292C85.2159 8.39158 84.8329 8.35382 84.4487 8.35008C82.6253 8.35008 80.398 9.02057 79.0897 11.7745V8.64771H75.667V26.5464H79.1699V17.5831C79.1699 13.6387 81.1323 12.077 84.0758 12.077Z" fill="black"/>
<path fill-rule="evenodd" clip-rule="evenodd" d="M102.83 27.1118C108.192 27.1118 111.988 23.0546 111.988 17.5844C111.988 12.1453 108.192 8.09952 102.83 8.09952C97.4676 8.09952 93.672 12.1519 93.672 17.5844C93.672 23.0546 97.4676 27.1118 102.83 27.1118ZM102.84 11.2214C105.816 11.2214 108.421 13.4552 108.421 17.5844C108.421 21.7463 105.813 23.9851 102.835 23.9851C99.8568 23.9851 97.2533 21.7529 97.2533 17.5844C97.2533 13.4487 99.8633 11.2214 102.84 11.2214Z" fill="black"/>
<defs>
<linearGradient id="paint0_linear_66_968" x1="15.399" y1="0" x2="15.399" y2="36" gradientUnits="userSpaceOnUse">
<stop stop-color="#FC85B6"/>
<stop offset="0.541667" stop-color="#EF426F"/>
</linearGradient>
</defs>
</svg>
