<svg width="36" height="36" viewBox="0 0 36 36" fill="none" xmlns="http://www.w3.org/2000/svg">
<path fill-rule="evenodd" clip-rule="evenodd" d="M18.0287 27C17.6993 27.0004 17.3757 26.9139 17.0903 26.7492L10.9384 23.1888C10.6535 23.0234 10.4169 22.7859 10.2522 22.5001C10.0876 22.2144 10.0006 21.8903 10 21.5604V14.44C10.001 14.1104 10.0882 13.7868 10.2528 13.5015C10.4175 13.2161 10.6538 12.979 10.9384 12.8137L17.0903 9.25117C17.3757 9.08661 17.6993 9 18.0287 9C18.358 9 18.6816 9.08661 18.9671 9.25117L25.1294 12.8163C25.2879 12.908 25.4195 13.0399 25.511 13.1987C25.6025 13.3576 25.6507 13.5378 25.6507 13.7212C25.6507 13.9046 25.6025 14.0847 25.511 14.2436C25.4195 14.4024 25.2879 14.5343 25.1294 14.626L22.2148 16.313V19.7058L25.1127 21.3817C25.2712 21.4734 25.4028 21.6053 25.4943 21.7641C25.5858 21.923 25.634 22.1031 25.634 22.2866C25.634 22.47 25.5858 22.6501 25.4943 22.809C25.4028 22.9678 25.2712 23.0997 25.1127 23.1914L18.9671 26.7492C18.6817 26.9139 18.358 27.0004 18.0287 27ZM20.9636 19.7064L18.0287 21.4052L15.0961 19.7099V17.0367L18.0307 18.7345L20.9636 17.0372V19.7064ZM18.0287 14.6161L20.3381 15.9515L18.0307 17.2868L15.7224 15.9514L18.0287 14.6161ZM18.0287 10.2537C17.9189 10.2536 17.811 10.2824 17.7159 10.3373L11.564 13.8972C11.4689 13.9522 11.39 14.0314 11.3351 14.1266C11.2802 14.2219 11.2512 14.33 11.2512 14.44V21.5604C11.2512 21.6704 11.2802 21.7785 11.3351 21.8738C11.39 21.969 11.4689 22.0482 11.564 22.1032L17.7159 25.6657C17.811 25.7207 17.9189 25.7497 18.0287 25.7497C18.1385 25.7497 18.2464 25.7207 18.3415 25.6657L24.1727 22.2918L21.5895 20.7939L18.6543 22.4908C18.464 22.6006 18.2483 22.6583 18.0287 22.6583C17.8091 22.6583 17.5934 22.6006 17.4031 22.4908L14.4705 20.7939C14.2805 20.6836 14.1227 20.5252 14.013 20.3346C13.9032 20.144 13.8452 19.9279 13.8449 19.7078V16.314C13.8453 16.094 13.9032 15.8779 14.013 15.6873C14.1228 15.4967 14.2805 15.3383 14.4705 15.2279L17.4031 13.5299C17.5934 13.4203 17.8091 13.3626 18.0287 13.3626C18.2482 13.3626 18.4639 13.4203 18.6543 13.5299L21.5895 15.2274L24.1925 13.7212L18.3415 10.3368C18.2463 10.2821 18.1384 10.2535 18.0287 10.2537Z" fill="#A6A6A6"/>
</svg>
