<?xml version="1.0" standalone="no"?>
<!DOCTYPE svg PUBLIC "-//W3C//DTD SVG 20010904//EN"
 "http://www.w3.org/TR/2001/REC-SVG-20010904/DTD/svg10.dtd">
<svg version="1.0" xmlns="http://www.w3.org/2000/svg"
 width="832.000000pt" height="832.000000pt" viewBox="0 0 832.000000 832.000000"
 preserveAspectRatio="xMidYMid meet">
<metadata>
Created by potrace 1.14, written by Peter Selinger 2001-2017
</metadata>
<g transform="translate(0.000000,832.000000) scale(0.100000,-0.100000)"
fill="#000000" stroke="none">
<path d="M4056 8313 c-3 -4 -18 -8 -33 -10 -34 -4 -53 -8 -73 -16 -8 -3 -37
-13 -65 -23 -67 -25 -113 -49 -370 -199 -299 -174 -287 -167 -315 -182 -14 -8
-43 -25 -65 -39 -22 -14 -51 -30 -65 -37 -14 -7 -36 -19 -50 -28 -39 -24 -140
-84 -190 -111 -25 -14 -225 -130 -444 -257 -220 -128 -418 -243 -440 -255 -55
-31 -117 -67 -380 -219 -82 -48 -153 -87 -158 -87 -4 0 -8 -5 -8 -11 0 -5 -4
-8 -9 -5 -5 4 -11 3 -13 -1 -3 -7 -95 -63 -218 -131 -24 -14 -84 -49 -133 -78
-49 -30 -91 -54 -94 -54 -11 0 -127 -85 -170 -125 -26 -24 -51 -45 -55 -45 -5
0 -8 -5 -8 -10 0 -6 -11 -23 -24 -38 -29 -32 -76 -100 -76 -109 0 -4 -6 -14
-13 -22 -7 -9 -25 -45 -39 -81 -34 -83 -34 -85 -58 -200 -5 -26 -9 -760 -9
-1780 0 -1479 2 -1746 14 -1810 8 -41 18 -82 21 -90 4 -8 8 -21 10 -28 1 -7
19 -48 38 -89 44 -91 110 -187 167 -239 23 -22 55 -51 71 -67 16 -15 31 -27
33 -27 3 0 28 -16 55 -35 28 -19 50 -33 50 -31 0 3 36 -17 80 -44 44 -28 81
-50 83 -50 3 0 89 -50 192 -110 103 -61 188 -110 190 -110 2 0 33 -18 69 -40
36 -22 70 -40 76 -40 5 0 10 -4 10 -8 0 -4 12 -13 28 -20 15 -6 41 -20 57 -30
35 -22 88 -53 165 -95 30 -17 61 -37 68 -44 7 -7 17 -13 22 -13 5 0 50 -25
101 -55 50 -30 93 -55 94 -55 1 0 44 -25 94 -55 51 -30 93 -55 95 -55 2 0 91
-51 198 -113 108 -63 202 -117 209 -121 8 -4 23 -12 34 -19 58 -35 189 -112
268 -156 16 -9 36 -20 46 -26 9 -5 63 -37 119 -70 57 -33 111 -65 120 -70 9
-6 40 -23 67 -38 28 -15 64 -36 80 -46 149 -90 355 -204 355 -196 0 3 13 -1
30 -10 16 -8 31 -15 32 -14 2 0 14 -4 28 -9 14 -5 43 -13 65 -17 56 -10 306
-15 319 -7 6 3 17 7 25 9 86 13 213 64 326 132 28 17 66 39 85 49 19 10 132
75 250 144 263 154 247 144 426 248 81 47 168 97 193 112 25 15 53 31 61 35 8
3 39 21 68 40 29 18 54 33 56 33 2 0 81 46 177 101 96 56 193 112 216 125 23
13 108 63 190 110 81 48 162 95 179 104 239 137 340 196 342 203 2 4 7 5 12 2
4 -3 13 2 20 10 7 8 19 15 26 15 8 0 14 5 14 10 0 6 4 10 9 10 5 0 92 48 193
106 101 59 197 115 215 125 94 53 139 90 197 160 29 35 73 139 84 198 21 117
-5 253 -68 350 -45 71 -106 125 -210 185 -52 30 -100 60 -107 66 -7 5 -15 10
-18 10 -4 0 -34 16 -68 36 -34 20 -78 46 -97 56 -34 20 -121 70 -572 332 -120
69 -222 126 -228 126 -5 0 -10 4 -10 9 0 5 -8 11 -17 14 -20 6 -75 38 -83 48
-3 4 -14 9 -25 13 -11 3 -30 14 -43 24 l-24 18 0 777 c0 427 3 780 6 785 5 8
127 81 216 128 19 11 37 21 40 24 3 3 83 50 179 105 95 55 197 114 225 130
212 122 273 157 286 166 43 26 222 129 226 129 2 0 28 16 58 35 30 19 58 35
63 35 15 0 128 85 158 119 102 115 149 269 123 401 -5 25 -11 56 -14 69 -9 46
-63 137 -110 187 -43 45 -151 124 -170 124 -3 0 -26 14 -51 30 -24 17 -46 30
-49 30 -2 0 -21 11 -42 23 -20 13 -68 41 -107 62 -38 21 -72 41 -75 45 -3 4
-20 13 -37 21 -18 8 -33 17 -33 21 0 5 -4 8 -10 8 -5 0 -44 20 -86 45 -41 25
-77 45 -80 45 -2 0 -27 15 -56 33 -29 19 -78 47 -108 64 -30 17 -154 88 -275
158 -121 70 -294 171 -385 223 -91 52 -217 126 -280 162 -63 37 -132 77 -152
89 -61 34 -94 53 -253 146 -82 48 -165 95 -182 104 -18 8 -33 19 -33 23 0 4
-5 8 -11 8 -6 0 -63 31 -127 69 -64 38 -139 81 -167 96 -27 16 -74 43 -102 61
-29 19 -53 31 -53 27 0 -3 -8 0 -17 8 -35 28 -203 105 -203 94 0 -3 -12 0 -27
6 -16 6 -41 13 -58 16 -45 8 -292 13 -299 6z m274 -610 c30 -16 57 -31 58 -35
2 -5 7 -8 12 -8 4 0 81 -43 171 -95 89 -52 166 -95 170 -95 5 0 9 -4 9 -10 0
-6 3 -9 8 -8 4 1 18 -5 32 -14 23 -15 167 -98 270 -156 25 -14 126 -73 225
-130 99 -58 196 -114 215 -125 19 -10 72 -41 118 -68 45 -27 87 -49 92 -49 6
0 10 -4 10 -8 0 -4 12 -13 28 -19 15 -7 34 -17 42 -22 45 -31 431 -251 440
-251 5 0 10 -4 10 -10 0 -5 5 -10 10 -10 6 0 46 -22 89 -49 44 -27 81 -47 84
-45 2 3 10 -2 17 -11 7 -8 19 -15 26 -15 8 0 14 -4 14 -10 0 -5 5 -10 11 -10
12 0 145 -76 170 -97 9 -7 19 -10 22 -6 4 3 7 1 7 -5 0 -7 5 -12 10 -12 6 0
27 -11 48 -23 33 -21 79 -48 162 -94 14 -8 39 -23 55 -34 17 -10 38 -22 48
-25 29 -10 20 -21 -50 -60 -38 -21 -81 -47 -98 -56 -16 -10 -41 -24 -55 -30
-14 -7 -29 -16 -35 -21 -9 -7 -268 -158 -380 -222 -22 -12 -80 -45 -128 -74
-49 -28 -93 -51 -98 -51 -5 0 -9 -4 -9 -10 0 -5 -4 -10 -10 -10 -5 0 -55 -27
-111 -60 -55 -33 -103 -60 -106 -60 -3 0 -24 -12 -47 -28 -39 -26 -76 -32 -76
-11 0 5 -4 9 -10 9 -5 0 -92 48 -194 108 -102 59 -203 116 -223 128 -21 12
-180 103 -353 204 -344 200 -364 211 -430 248 -25 13 -49 28 -55 32 -61 45
-191 97 -265 107 -87 12 -233 1 -257 -19 -7 -6 -13 -8 -13 -5 0 11 -193 -88
-260 -133 -14 -10 -45 -28 -70 -42 -25 -14 -121 -69 -215 -123 -93 -55 -180
-104 -192 -109 -13 -6 -23 -14 -23 -18 0 -5 -4 -8 -9 -8 -5 0 -114 -61 -241
-135 -128 -74 -234 -135 -235 -135 -2 0 -51 -29 -110 -65 -59 -36 -111 -65
-115 -65 -36 0 -223 -207 -223 -246 0 -8 -3 -14 -7 -14 -6 0 -32 -79 -46 -140
-4 -14 -7 -403 -8 -865 -1 -613 2 -858 10 -905 13 -72 40 -146 61 -171 7 -9
10 -19 6 -22 -3 -4 -1 -7 5 -7 7 0 12 -7 12 -15 0 -20 138 -157 180 -178 19
-10 49 -27 65 -37 17 -11 46 -28 65 -37 19 -10 40 -22 45 -26 6 -4 96 -57 200
-117 105 -60 195 -113 200 -117 6 -5 24 -15 40 -23 28 -14 153 -86 200 -115
11 -7 24 -13 28 -13 4 -1 19 -10 34 -22 14 -11 32 -20 39 -20 8 0 14 -4 14 -9
0 -4 23 -19 50 -32 28 -13 50 -27 50 -31 0 -5 5 -8 11 -8 6 0 49 -23 97 -51
48 -29 102 -60 120 -71 18 -10 65 -36 104 -59 127 -71 268 -98 393 -73 123 25
119 23 345 154 105 60 195 110 201 110 5 0 9 5 9 10 0 6 4 10 9 10 5 0 54 26
108 58 54 31 119 68 146 82 26 14 47 28 47 32 0 5 4 8 9 8 5 0 49 23 98 52 48
28 101 58 116 67 16 9 36 21 45 26 9 6 60 35 112 65 52 30 109 63 125 73 17
10 42 23 58 30 15 6 27 15 27 19 0 4 5 8 10 8 6 0 28 11 49 24 l38 25 83 -50
c46 -27 84 -49 85 -49 1 0 44 -25 94 -55 51 -30 94 -55 97 -55 3 0 18 -8 32
-19 15 -10 47 -29 72 -43 25 -14 100 -57 167 -97 68 -39 127 -71 133 -71 5 0
10 -3 10 -7 0 -5 10 -13 23 -19 12 -6 94 -52 182 -104 88 -51 170 -98 182
-104 13 -6 23 -14 23 -17 0 -8 -118 -79 -131 -79 -5 0 -9 -4 -9 -8 0 -4 -12
-13 -27 -19 -16 -7 -46 -23 -68 -37 -22 -14 -47 -29 -55 -33 -8 -4 -74 -42
-148 -85 -73 -43 -137 -78 -142 -78 -6 0 -10 -3 -10 -7 0 -5 -31 -24 -68 -43
-37 -19 -72 -40 -78 -45 -6 -6 -30 -19 -53 -29 -22 -11 -41 -23 -41 -28 0 -4
-5 -8 -10 -8 -9 0 -36 -15 -138 -75 -32 -19 -177 -102 -212 -123 -19 -10 -75
-43 -123 -71 -49 -28 -93 -51 -98 -51 -5 0 -9 -4 -9 -10 0 -5 -4 -10 -9 -10
-5 0 -55 -27 -111 -60 -56 -33 -106 -60 -111 -60 -5 0 -9 -4 -9 -8 0 -4 -12
-13 -27 -19 -16 -7 -46 -23 -68 -36 -40 -24 -161 -94 -335 -195 -52 -30 -151
-87 -220 -127 -69 -40 -141 -82 -160 -93 -19 -11 -79 -45 -134 -77 -54 -31
-119 -64 -143 -72 -62 -21 -156 -12 -216 21 -97 54 -138 77 -342 196 -115 68
-230 134 -255 148 -25 14 -61 35 -80 47 -19 12 -42 24 -50 28 -8 4 -22 11 -30
17 -46 31 -273 160 -281 160 -5 0 -9 5 -9 10 0 6 -5 10 -11 10 -6 0 -48 22
-95 50 -47 27 -87 50 -90 50 -3 0 -18 8 -32 19 -28 19 -88 54 -134 78 -15 8
-30 18 -33 24 -4 5 -14 9 -25 9 -10 0 -20 7 -24 15 -3 8 -10 15 -16 15 -6 0
-79 40 -163 89 -84 49 -168 98 -187 109 -64 35 -353 203 -445 257 -49 29 -108
64 -131 77 -23 12 -119 68 -213 123 -95 55 -187 108 -204 118 -50 29 -92 74
-118 125 -21 42 -32 126 -30 240 0 15 0 456 0 477 0 8 -1 332 -1 720 0 388 1
712 1 720 0 8 0 116 0 240 0 124 0 233 0 243 0 9 0 73 0 142 -1 69 -1 131 0
138 0 11 1 161 0 197 0 8 0 93 1 188 l1 172 32 65 c39 79 73 106 277 222 79
46 169 98 200 116 30 18 67 38 83 45 15 6 27 15 27 19 0 4 4 8 9 8 4 0 96 51
203 113 107 62 201 116 209 120 7 4 21 11 29 17 26 17 342 200 346 200 2 0 23
12 47 27 74 46 210 123 218 123 5 0 9 5 9 10 0 6 4 10 8 10 7 0 115 61 342
193 92 54 116 67 130 74 8 3 34 19 58 35 23 16 42 25 42 21 0 -4 4 -3 8 3 4 6
41 29 82 52 41 23 98 56 125 72 28 17 59 35 70 41 11 5 29 15 40 22 11 7 63
37 115 67 52 30 104 60 115 67 11 7 31 18 45 25 14 7 27 15 30 18 16 16 128
72 163 81 55 14 148 1 207 -28z m-78 -2014 c29 -18 64 -39 78 -47 14 -9 26
-14 26 -11 1 2 10 -3 20 -12 11 -9 65 -43 122 -75 57 -32 111 -64 120 -69 9
-6 40 -23 67 -38 28 -15 57 -32 65 -37 8 -6 116 -68 240 -139 124 -71 233
-136 243 -143 17 -12 6 -20 -113 -88 -72 -41 -137 -80 -144 -87 -7 -6 -28 -19
-47 -28 -19 -8 -43 -21 -54 -28 -25 -15 -167 -97 -215 -124 -52 -30 -400 -232
-436 -254 l-30 -18 -138 79 c-76 44 -142 80 -147 80 -5 0 -9 5 -9 10 0 6 -4
10 -9 10 -5 0 -44 20 -85 45 -42 25 -81 45 -86 45 -6 0 -10 5 -10 10 0 6 -4
10 -9 10 -5 0 -44 20 -85 45 -42 25 -81 45 -86 45 -6 0 -10 5 -10 10 0 6 -4
10 -10 10 -7 0 -361 201 -378 215 -2 2 23 18 55 36 32 19 66 39 75 44 9 6 29
17 45 26 35 20 273 156 293 169 39 24 235 135 245 139 5 2 12 7 15 10 5 6 18
14 99 59 25 13 58 33 73 43 14 11 29 19 32 19 3 0 31 16 63 35 32 19 61 35 65
35 4 0 31 -14 60 -31z m-1187 -1217 c83 -47 152 -88 155 -91 5 -6 81 -48 117
-65 13 -6 23 -14 23 -18 0 -5 5 -8 11 -8 6 0 49 -23 97 -51 48 -29 103 -61
122 -72 19 -10 71 -40 115 -66 44 -26 87 -50 95 -54 8 -4 29 -16 45 -27 17
-11 37 -23 45 -27 8 -4 38 -20 65 -36 28 -17 92 -54 144 -84 l93 -53 42 23
c22 12 43 24 46 27 3 3 16 11 30 18 14 6 32 16 40 22 8 6 132 78 275 160 143
82 265 153 270 157 6 5 25 15 43 22 17 7 32 17 32 22 0 5 5 9 10 9 6 0 35 15
66 33 131 76 151 88 192 109 23 12 42 26 42 30 0 4 5 8 10 8 6 0 52 24 104 54
52 30 108 62 124 70 l31 16 -1 -614 0 -613 -136 -79 c-75 -43 -156 -91 -181
-105 -25 -14 -116 -66 -201 -116 -85 -49 -198 -114 -250 -144 -52 -29 -97 -56
-100 -59 -3 -3 -14 -10 -25 -16 -11 -6 -78 -44 -148 -85 -71 -41 -154 -89
-185 -107 -31 -18 -65 -35 -74 -39 -10 -3 -18 -9 -18 -13 0 -4 -10 -10 -22
-13 -17 -5 -91 33 -293 150 -148 85 -287 166 -307 179 -21 13 -40 24 -42 24
-2 0 -50 27 -106 60 -56 33 -106 60 -111 60 -5 0 -9 4 -9 9 0 5 -12 14 -27 20
-16 6 -35 15 -43 21 -14 9 -135 79 -220 128 -144 81 -187 107 -200 118 -13 11
-15 91 -13 621 1 334 2 610 2 611 1 2 18 -6 39 -18 20 -12 105 -61 187 -108z"/>
</g>
</svg>
